# xmcd
#
# Track frame offsets:
#	150
#	15314
#	37199
#	56039
#
# Disc length: 955 seconds
#
# Revision: 0
# Processed by: cddbd v1.4b42PL1 Copyright (c) Steve Scherf et al.
# Submitted via: EasyCDDAExtractor 4.5.0.1
#
DISCID=2c03b904
DTITLE=Jack in the box - Demo
DYEAR=1998
DGENRE=Blues
TTITLE0=No more Comment
TTITLE1=One way to Fireland
TTITLE2=You
TTITLE3=Sometimes - Somewhere
EXTD=
EXTT0=
EXTT1=
EXTT2=
EXTT3=
PLAYORDER=
